<?xml version="1.0" encoding="UTF-8"?>
<svg width="164px" height="132px" viewBox="0 0 164 132" version="1.1" xmlns="http://www.w3.org/2000/svg" xmlns:xlink="http://www.w3.org/1999/xlink">
    <!-- Generator: Sketch 57.1 (83088) - https://sketch.com -->
    <title>noun_presentation_2711197</title>
    <desc>Created with Sketch.</desc>
    <g id="Website" stroke="none" stroke-width="1" fill="none" fill-rule="evenodd">
        <g id="Home---Web" transform="translate(-457.000000, -1036.000000)" fill-rule="nonzero">
            <g id="Group-2" transform="translate(444.000000, 1036.000000)">
                <g id="noun_presentation_2711197" transform="translate(13.000000, 0.000000)">
                    <g id="Group">
                        <path d="M160.741476,0.345982906 L2.28233333,0.345982906 C1.14116667,0.345982906 0.217365079,1.27299145 0.217365079,2.41811966 L0.217365079,11.4700855 C0.217365079,12.6152137 1.14116667,13.5422222 2.28233333,13.5422222 L4.78203175,13.5422222 L4.78203175,106.897436 C4.78203175,108.042564 5.70583333,108.969573 6.847,108.969573 L79.555619,108.969573 L79.555619,118.948547 C76.9472381,119.821026 75.0452937,122.220342 75.0452937,125.110427 C75.0452937,128.763932 77.9797222,131.708547 81.6205873,131.708547 C85.2614524,131.708547 88.195881,128.763932 88.195881,125.110427 C88.195881,122.220342 86.2939365,119.821026 83.6855556,118.948547 L83.6855556,108.969573 L156.394175,108.969573 C157.535341,108.969573 158.459143,108.042564 158.459143,106.897436 L158.459143,13.5422222 L160.958841,13.5422222 C162.100008,13.5422222 163.02381,12.6152137 163.02381,11.4700855 L163.02381,2.36358974 C162.806444,1.27299145 161.882643,0.345982906 160.741476,0.345982906 Z M84.0116032,125.055897 C84.0116032,126.419145 82.8704365,127.564274 81.5119048,127.564274 C80.153373,127.564274 79.0122063,126.419145 79.0122063,125.055897 C79.0122063,123.69265 80.153373,122.547521 81.5119048,122.547521 C82.8704365,122.547521 84.0116032,123.69265 84.0116032,125.055897 Z M154.220524,104.879829 L8.85762698,104.879829 L8.85762698,13.5422222 L154.220524,13.5422222 L154.220524,104.879829 Z M158.730849,9.45247863 L156.231151,9.45247863 L6.79265873,9.45247863 L4.29296032,9.45247863 L4.29296032,4.4357265 L158.730849,4.4357265 L158.730849,9.45247863 Z" id="Shape" fill="#0F4880"></path>
                        <path d="M43.0382857,81.7046154 C55.373754,81.7046154 65.4812302,71.6165812 65.4812302,59.1837607 C65.4812302,55.9664957 64.7747937,52.9128205 63.5249444,50.1317949 C63.5249444,50.077265 63.5249444,49.9682051 63.4706032,49.9136752 C63.4162619,49.7500855 63.2532381,49.6410256 63.1988968,49.4774359 C59.5580317,41.9523077 51.950254,36.7174359 43.092627,36.7174359 C30.7571587,36.7174359 20.6496825,46.8054701 20.6496825,59.2382906 C20.6496825,71.6711111 30.6484762,81.7046154 43.0382857,81.7046154 Z M45.0489127,40.9707692 C50.8634286,41.6251282 55.8084841,44.951453 58.6885714,49.8046154 L45.0489127,56.0210256 L45.0489127,40.9707692 Z M45.0489127,60.4924786 L60.3731508,53.5126496 C60.9709048,55.3121368 61.3512937,57.1661538 61.3512937,59.1837607 C61.3512937,68.6174359 54.178246,76.3606838 45.0489127,77.3967521 L45.0489127,60.4924786 Z M40.9733175,40.9707692 L40.9733175,59.1292308 C40.9733175,59.1837607 40.9733175,59.2382906 40.9733175,59.2928205 L40.9733175,77.3422222 C31.8439841,76.3061538 24.6709365,68.6174359 24.6709365,59.1292308 C24.6709365,49.6410256 31.8439841,42.0068376 40.9733175,40.9707692 Z" id="Shape" fill="#E18B7F"></path>
                        <path d="M79.2295714,40.8071795 L142.645833,40.8071795 C143.787,40.8071795 144.710802,39.8801709 144.710802,38.7350427 C144.710802,37.5899145 143.787,36.662906 142.645833,36.662906 L79.2295714,36.662906 C78.0884048,36.662906 77.1646032,37.5899145 77.1646032,38.7350427 C77.1646032,39.8801709 78.142746,40.8071795 79.2295714,40.8071795 Z" id="Path" fill="#E18B7F"></path>
                        <path d="M79.2295714,56.6753846 L142.645833,56.6753846 C143.787,56.6753846 144.710802,55.7483761 144.710802,54.6032479 C144.710802,53.4581197 143.787,52.5311111 142.645833,52.5311111 L79.2295714,52.5311111 C78.0884048,52.5311111 77.1646032,53.4581197 77.1646032,54.6032479 C77.1646032,55.7483761 78.142746,56.6753846 79.2295714,56.6753846 Z" id="Path" fill="#E18B7F"></path>
                        <path d="M79.2295714,72.5981197 L142.645833,72.5981197 C143.787,72.5981197 144.710802,71.6711111 144.710802,70.5259829 C144.710802,69.3808547 143.787,68.4538462 142.645833,68.4538462 L79.2295714,68.4538462 C78.0884048,68.4538462 77.1646032,69.3808547 77.1646032,70.5259829 C77.1646032,71.6711111 78.142746,72.5981197 79.2295714,72.5981197 Z" id="Path" fill="#E18B7F"></path>
                        <path d="M79.2295714,88.5208547 L142.645833,88.5208547 C143.787,88.5208547 144.710802,87.5938462 144.710802,86.4487179 C144.710802,85.3035897 143.787,84.3765812 142.645833,84.3765812 L79.2295714,84.3765812 C78.0884048,84.3765812 77.1646032,85.3035897 77.1646032,86.4487179 C77.1646032,87.5938462 78.142746,88.5208547 79.2295714,88.5208547 Z" id="Path" fill="#E18B7F"></path>
                    </g>
                </g>
            </g>
        </g>
    </g>
</svg>