<?xml version="1.0" encoding="UTF-8"?>
<svg width="259px" height="20px" viewBox="0 0 259 20" version="1.1" xmlns="http://www.w3.org/2000/svg" xmlns:xlink="http://www.w3.org/1999/xlink">
    <!-- Generator: Sketch 57.1 (83088) - https://sketch.com -->
    <title>Group 4</title>
    <desc>Created with Sketch.</desc>
    <g id="Website" stroke="none" stroke-width="1" fill="none" fill-rule="evenodd">
        <g id="Home---Web" transform="translate(-224.000000, -22.000000)">
            <g id="Group-4" transform="translate(224.000000, 15.000000)">
                <g id="Group" transform="translate(0.000000, 7.000000)" fill="#000000" fill-rule="nonzero">
                    <g id="Group-3">
                        <path d="M22.2628993,13.3587601 C22.3300577,13.4419556 22.3636364,13.5440577 22.3636364,13.6650694 C22.3636364,13.7860811 22.3356541,13.9165449 22.2796888,14.0564647 C22.2237234,14.1963844 22.1435077,14.3400837 22.039039,14.4875667 C21.9345704,14.6350497 21.8114485,14.7730766 21.6696697,14.9016515 C21.6323594,14.9394676 21.5987807,14.9697201 21.5689326,14.9924098 C21.5390844,15.0150995 21.5092367,15.0415704 21.4793885,15.0718233 C21.4644644,15.0869498 21.4458096,15.102076 21.4234234,15.1172025 C21.4010373,15.132329 21.3823825,15.1474552 21.3674584,15.1625816 C21.3599963,15.1701449 21.3469379,15.1795988 21.3282828,15.1909436 C21.3096277,15.2022885 21.2965693,15.2117424 21.2891073,15.2193056 C21.3040314,15.2117424 21.2984349,15.2155239 21.2723178,15.2306504 C21.2462006,15.2457768 21.2256803,15.2609031 21.2107562,15.2760295 C21.1958321,15.2835928 21.1809083,15.2949375 21.1659842,15.3100639 C21.1510601,15.3251904 21.1380017,15.3365351 21.1268086,15.3440983 C21.1156156,15.3516615 21.1025572,15.3630062 21.0876331,15.3781327 L21.042861,15.412167 C21.027937,15.4197303 21.0223405,15.4235118 21.0260715,15.4235118 C21.0298025,15.4235118 21.0242061,15.4272934 21.009282,15.4348566 C20.9719718,15.4651095 20.9327966,15.4972528 20.8917554,15.5312873 C20.8507141,15.5653219 20.8040771,15.6012467 20.7518428,15.6390628 C20.6548362,15.7146951 20.5410417,15.8035618 20.4104559,15.9056654 C20.2798701,16.007769 20.1399589,16.119325 19.990718,16.2403367 L19.8899809,16.3084054 C19.8750568,16.3159686 19.8657294,16.3235318 19.8619984,16.331095 C19.8582673,16.3386582 19.8489399,16.3462213 19.8340158,16.3537846 C19.6773129,16.4747963 19.496361,16.6071508 19.2911548,16.7508522 C19.0859486,16.8945536 18.867687,17.0495975 18.6363636,17.2159886 C18.3229578,17.4353223 17.9685159,17.6697789 17.5730276,17.9193655 C17.1775392,18.1689522 16.7857877,18.4034088 16.3977614,18.6227425 C16.158976,18.7513174 15.9108667,18.8761089 15.6534262,18.9971206 C15.3959856,19.1181323 15.1105667,19.2353606 14.7971608,19.348809 C14.4837549,19.4546943 14.1572954,19.551124 13.8177723,19.6381012 C13.4782493,19.7250783 13.1107491,19.7761294 12.7152607,19.7912558 C12.3123103,19.8063823 11.8907111,19.7591128 11.4504505,19.649446 C11.0101898,19.5397791 10.5923216,19.3412473 10.1968332,19.0538445 C9.82373096,18.7664417 9.49913688,18.3996305 9.22304122,17.9533999 C8.94694557,17.5071693 8.74174241,17.0344744 8.60742561,16.5353012 C8.52534311,16.2554617 8.46378217,15.969954 8.42274092,15.6787696 C8.38169968,15.3875852 8.35371743,15.1058591 8.33879334,14.8335827 C8.33133129,14.7050078 8.32946581,14.5499639 8.33319683,14.3684464 C8.33692786,14.1869288 8.34625527,14.0318849 8.36117936,13.90331 C8.36117936,13.8730571 8.36864129,13.8276784 8.38356538,13.7671725 C8.30148289,13.8428048 8.21753615,13.9165452 8.13172263,13.9883959 C8.04590912,14.0602466 7.96196237,14.1377686 7.87987988,14.2209641 C7.52170173,14.5537463 7.13181574,14.9129943 6.71021021,15.2987191 C6.28860468,15.6844439 5.83156129,16.1004154 5.33906634,16.546646 L5.27750478,16.6090423 C5.25138762,16.6355136 5.23086731,16.6525307 5.21594322,16.6600939 C5.20848117,16.6676571 5.20101924,16.6733295 5.19355719,16.6771111 C5.18609515,16.6808927 5.17863322,16.686565 5.17117117,16.6941283 C5.14132299,16.7243812 5.10960978,16.7527429 5.07603058,16.7792142 C5.04245137,16.8056855 5.01073816,16.8340472 4.98088998,16.8643001 C4.77941477,17.0382544 4.57421162,17.2178785 4.36527437,17.4031776 C4.15633711,17.5884768 3.93621009,17.7794455 3.7048867,17.9760895 C3.42879105,18.2181129 3.11912084,18.4809312 2.77586678,18.7645524 C2.43261272,19.0481735 2.07070897,19.3298997 1.69014469,19.6097392 C1.66029651,19.6399921 1.63417975,19.6588999 1.61179361,19.6664632 C1.59686952,19.6815896 1.58008017,19.6948251 1.56142506,19.7061699 C1.54276995,19.7175148 1.5147877,19.7307502 1.47747748,19.7458767 C1.46255339,19.7534399 1.43270566,19.7723477 1.38793339,19.8026006 L1.36554737,19.8139454 C1.34316123,19.8366351 1.32077543,19.8479798 1.2983893,19.8479798 C1.29092725,19.8479798 1.28719629,19.8517613 1.28719629,19.8593246 C1.22749993,19.8971407 1.1640735,19.9273932 1.0969151,19.9500829 C1.02975669,19.9727726 0.955137366,19.9878988 0.873054873,19.9954621 C0.80589647,20.0030253 0.725680692,20.0011345 0.632405132,19.9897897 C0.539129573,19.9784448 0.443989929,19.9500831 0.346983347,19.9047037 C0.264900854,19.8441979 0.208936358,19.7912561 0.179088179,19.7458767 C0.14924,19.7004973 0.119392269,19.6475555 0.0895440895,19.5870496 L0.0895440895,19.5983944 L0.0447720448,19.5076361 C0.0298479552,19.439567 0.0205205392,19.388516 0.0167895168,19.3544814 C0.0130584944,19.3204469 0.0111930112,19.2731774 0.0111930112,19.2126716 C0.0111930112,19.2051083 0.00932752798,19.1975452 0.0055965056,19.189982 C0.00186548321,19.1824188 0,19.1672925 0,19.1446028 C0,19.0538441 0.00186548321,18.9782129 0.0055965056,18.917707 C0.00932752798,18.8572012 0.0149239776,18.7966962 0.0223860224,18.7361904 C0.0522342015,18.5697993 0.0820819328,18.4071923 0.111930112,18.2483644 C0.141778291,18.0895366 0.175356989,17.9307111 0.212667213,17.7718833 C0.220129257,17.7567568 0.225725707,17.7321767 0.229456729,17.6981421 C0.233187752,17.6641076 0.242515168,17.6357459 0.257439257,17.6130562 C0.257439257,17.605493 0.259304741,17.5998207 0.263035763,17.596039 C0.266766785,17.5922574 0.268632269,17.5865851 0.268632269,17.5790219 L0.257439257,17.6017114 L0.257439257,17.5563323 C0.257439257,17.5412058 0.26490119,17.5147349 0.27982528,17.4769187 C0.384293907,17.0685043 0.494357416,16.6544236 0.61001911,16.2346643 C0.725680804,15.814905 0.835744313,15.4235136 0.94021294,15.0604785 C1.15661224,14.3268451 1.36741184,13.6329291 1.57261807,12.9787096 C1.7778243,12.3244902 1.97743101,11.7024237 2.17144417,11.1124917 C2.52216028,10.0460762 2.8411579,9.08177869 3.12844663,8.21957037 C3.41573535,7.35736204 3.67503752,6.58970562 3.90636091,5.91657806 L3.90636091,5.93926764 C3.921285,5.86363533 3.93620886,5.80880273 3.95113295,5.77476819 C3.96605704,5.74073365 3.98098091,5.70480884 3.995905,5.66699269 C4.01082909,5.63673977 4.0201565,5.60837808 4.02388752,5.58190677 C4.02761855,5.55543546 4.03694596,5.52707377 4.05187005,5.49682084 C4.29065548,4.8010036 4.50145509,4.1865003 4.68427518,3.65329252 C4.86709528,3.12008474 5.01819942,2.68331471 5.13759214,2.34296931 L5.13759214,2.3543141 C5.17490236,2.23330241 5.21221203,2.12363721 5.24952225,2.0253152 C5.28683247,1.9269932 5.32041117,1.83623579 5.35025935,1.75304025 C5.38010753,1.66228148 5.40808978,1.57908719 5.43420693,1.50345488 C5.46032409,1.42782257 5.48084441,1.36353607 5.4957685,1.31059345 C5.51069259,1.2727773 5.52188548,1.24252483 5.52934753,1.21983514 C5.53680957,1.19714544 5.54427151,1.17823765 5.55173355,1.16311119 C5.61889195,0.981593646 5.70097322,0.813314282 5.7979798,0.658268048 C5.89498638,0.503221814 5.99758796,0.374648816 6.10578761,0.272545199 C6.21398725,0.170441581 6.32405076,0.0948104063 6.43598144,0.0456494052 C6.54791211,-0.00351159583 6.65611013,-0.0129654927 6.76057876,0.0172874311 C6.88743352,0.0702300476 6.98070768,0.162878237 7.04040404,0.295234778 C7.1001004,0.427591319 7.12994813,0.588307566 7.12994813,0.777388339 C7.12994813,0.905963265 7.11688975,1.04777172 7.09077259,1.20281795 C7.06465543,1.35786419 7.02174932,1.51479887 6.96205296,1.67362672 C6.94712887,1.70387965 6.93220501,1.73791368 6.91728092,1.77572983 L6.87250887,1.88917773 L6.88370188,1.87783294 C6.86877779,1.92321232 6.84825748,1.97237259 6.82214032,2.0253152 C6.79602317,2.07825782 6.77177188,2.1349812 6.74938575,2.19548705 C6.71207553,2.29380905 6.66730393,2.40914659 6.61506962,2.54150313 C6.5628353,2.67385968 6.50127436,2.83268514 6.43038493,3.0179843 C6.35949551,3.20328346 6.27741424,3.42261387 6.18413868,3.6759821 C6.09086312,3.92935034 5.98079962,4.2262027 5.85394485,4.56654809 C5.81663463,4.65730686 5.77932497,4.75184583 5.74201474,4.85016783 C5.71962861,4.91067368 5.69537733,4.9730694 5.66926017,5.03735686 C5.64314301,5.10164433 5.61889173,5.16404005 5.5965056,5.22454589 C5.58158151,5.26236205 5.56665764,5.30395919 5.55173355,5.34933858 C5.53680946,5.39471796 5.5218856,5.43631511 5.50696151,5.47413127 L5.51815452,5.46278648 C5.30175522,6.05271849 5.05178047,6.73528984 4.76822277,7.51052101 C4.48466507,8.28575218 4.16007099,9.19899862 3.79443079,10.2502877 C3.5780315,10.8704727 3.34857706,11.5322454 3.10606061,12.2356259 C2.86354415,12.9390064 2.60797295,13.7028813 2.33933934,14.5272734 L2.33933934,14.5159286 C2.32441525,14.5537448 2.31135687,14.5934512 2.3001638,14.6350489 C2.28897073,14.6766467 2.27591235,14.7163531 2.26098826,14.7541692 L2.19383019,15.0037546 C2.08936157,15.3516632 1.97929806,15.7090205 1.86363636,16.0758372 C1.74797467,16.4426539 1.63418019,16.818919 1.52224952,17.2046438 L1.52224952,17.2500229 C1.51478748,17.2651494 1.51105651,17.2840572 1.51105651,17.3067469 C1.50359447,17.3369998 1.49799802,17.3559076 1.49426699,17.3634708 C1.49053597,17.3710341 1.48493952,17.3937234 1.47747748,17.4315396 C1.41778112,17.6508733 1.36368211,17.858859 1.31517882,18.055503 C1.26667552,18.252147 1.22750038,18.4298803 1.1976522,18.5887081 C1.5483683,18.3391215 1.89721366,18.0687401 2.24419874,17.7775557 C2.59118383,17.4863713 2.93256725,17.197082 3.26835927,16.9096793 C3.55937901,16.6600926 3.8392015,16.4161821 4.10783511,16.1779403 C4.37646872,15.9396986 4.63763637,15.7071327 4.89134589,15.4802358 C4.91373203,15.4651093 4.94731072,15.4348568 4.99208299,15.3894774 C5.05177935,15.3289716 5.09655095,15.2873744 5.12639913,15.2646848 L5.11520612,15.2760295 C5.62262516,14.8222357 6.10018886,14.3854657 6.54791155,13.9657063 C6.995632,13.545947 7.40977151,13.1545557 7.79033579,12.7915206 L7.79033579,12.8028654 C7.82018397,12.7726125 7.8500317,12.7442508 7.87987988,12.7177795 C7.90972806,12.6913082 7.93957579,12.6629465 7.96942397,12.6326936 C8.76786276,11.8763705 9.46555348,11.2127069 10.0625171,10.641683 C10.6594806,10.070659 11.2004708,9.54691314 11.6855037,9.07042959 C11.7526621,9.00992375 11.8198195,8.94752803 11.8869779,8.88324056 C11.9541363,8.8189531 12.0175627,8.75655738 12.0772591,8.69605153 C12.1593416,8.62041922 12.2358264,8.54478805 12.3067158,8.46915574 C12.3776052,8.39352343 12.45409,8.31789226 12.5361725,8.24225995 L12.5361725,8.25360474 C12.8719646,7.92838581 13.205886,7.60128097 13.537947,7.27228043 C13.870008,6.94327988 14.2300463,6.59726726 14.6180726,6.23423217 C14.6703069,6.19641602 14.7001547,6.17561745 14.7076167,6.17183583 C14.7150788,6.16805422 14.7225407,6.16238188 14.7300027,6.15481865 C14.774775,6.10943926 14.8120847,6.07540523 14.8419328,6.05271554 L14.8307398,6.05271554 C15.0769873,5.81825538 15.3362895,5.58001718 15.6086541,5.33799379 C15.8810187,5.0959704 16.1813615,4.8388244 16.5096915,4.56654809 L16.9014469,4.26023877 L16.8902539,4.26023877 C16.9350262,4.22242262 16.9853942,4.18460703 17.0413595,4.14679087 C17.0973249,4.10897472 17.1663478,4.06359601 17.2484302,4.0106534 L17.2372372,4.0106534 C17.2670854,3.99552694 17.3025296,3.97850992 17.3435708,3.95960184 C17.3846121,3.94069377 17.4424421,3.93123987 17.5170625,3.93123987 L17.5394485,3.91989508 C17.5991449,3.91233185 17.6644368,3.91422263 17.7353262,3.92556747 C17.8062157,3.93691232 17.8938934,3.97283713 17.998362,4.03334298 C18.0729824,4.10897529 18.1345434,4.19216958 18.1830467,4.28292835 C18.23155,4.37368712 18.2595322,4.44553674 18.2669943,4.49847935 L18.2669943,4.61192725 C18.2669943,4.6724331 18.2576669,4.73104726 18.2390117,4.78777149 C18.2203566,4.84449572 18.2035673,4.89176521 18.1886432,4.92958136 L18.1550642,4.98630531 L18.0767131,5.14513236 C18.061789,5.16782206 18.0300758,5.2094192 17.9815725,5.26992505 C17.9330692,5.3304309 17.8789702,5.39849896 17.8192738,5.47413127 L17.8080808,5.49682084 C17.6289917,5.72371777 17.4275195,5.96384675 17.2036582,6.21721499 C16.9797969,6.47058323 16.7596698,6.71827532 16.5432705,6.96029871 C16.0060033,7.54266749 15.5041883,8.07019494 15.0378105,8.54289687 L13.4428064,10.1595294 C13.360724,10.2427249 13.2823737,10.3240285 13.2077532,10.4034424 C13.1331328,10.4828563 13.0547825,10.5603783 12.9727,10.6360106 L12.9727,10.6246658 C12.6294459,10.9650112 12.3085828,11.2845529 12.010101,11.5833005 C11.7116192,11.8820481 11.4206038,12.1637743 11.1370461,12.4284873 C10.9654191,12.5948784 10.7937947,12.7537039 10.6221676,12.9049685 C10.4505406,13.0562331 10.2789161,13.2037139 10.1072891,13.3474153 C10.0177446,13.4306108 9.92073944,13.5119144 9.81627082,13.5913283 C9.71180219,13.6707422 9.60733513,13.7444826 9.5028665,13.8125517 C9.49540446,13.8276781 9.49167349,13.8446952 9.49167349,13.8636032 C9.49167349,13.8825113 9.48794253,13.910873 9.48048048,13.9486892 C9.46555639,14.0621376 9.45249801,14.1736936 9.44130494,14.2833604 C9.43011187,14.3930273 9.42451542,14.4970202 9.42451542,14.5953422 C9.42451542,14.75417 9.43570832,14.9356848 9.45809446,15.1398921 C9.48048059,15.3516625 9.51219381,15.5653206 9.55323505,15.7808727 C9.5942763,15.9964248 9.65210628,16.2100828 9.72672673,16.4218533 C9.84611944,16.7621987 9.99162713,17.0760681 10.1632542,17.3634708 C10.3348812,17.6508736 10.5363534,17.8853303 10.7676768,18.0668478 C10.9915381,18.2483653 11.2359164,18.3807199 11.500819,18.4639154 C11.7657216,18.547111 12.0287547,18.5962712 12.2899263,18.6113977 C12.5585599,18.6265242 12.821593,18.6132887 13.0790336,18.5716909 C13.3364741,18.5300932 13.5771215,18.4790421 13.8009828,18.4185363 C14.0099201,18.3580304 14.2300471,18.2805085 14.4613705,18.1859681 C14.6926938,18.0914277 14.897897,17.9987795 15.0769861,17.9080208 C15.4500883,17.7340664 15.8045301,17.5430977 16.1403221,17.3351089 C16.4761142,17.12712 16.7745915,16.9361513 17.035763,16.762197 C17.2745485,16.5958059 17.5040029,16.4313081 17.7241332,16.2686986 C17.9442635,16.1060892 18.1438702,15.952936 18.3229593,15.8092347 C18.6363652,15.5672113 18.8993983,15.3573348 19.1120666,15.1795988 C19.3247349,15.0018629 19.5094177,14.8449282 19.6661207,14.7087901 L19.7668578,14.606687 C19.7892439,14.5839973 19.8153607,14.5613079 19.8452088,14.5386182 C19.875057,14.5159285 19.8974428,14.4970207 19.9123669,14.4818943 C19.9422151,14.4592046 19.9664664,14.438406 19.9851215,14.4194979 L20.0914551,14.3117224 C20.1809996,14.2285269 20.2742738,14.1453326 20.3712804,14.0621371 C20.468287,13.9789415 20.569023,13.8844025 20.6734917,13.7785173 C20.8227326,13.6499424 20.9775677,13.542168 21.1380016,13.4551908 C21.2984356,13.3682136 21.4514052,13.3039271 21.5969151,13.2623294 C21.742425,13.2207316 21.8730088,13.2074962 21.9886705,13.2226226 C22.1043322,13.2377491 22.1957409,13.2831278 22.2628993,13.3587601 Z" id="K"></path>
                        <path d="M41.8992629,13.3587601 C41.9664213,13.4419556 42,13.5440577 42,13.6650694 C42,13.7860811 41.9720178,13.9165449 41.9160524,14.0564647 C41.8600871,14.1963844 41.7798713,14.3400837 41.6754027,14.4875667 C41.570934,14.6350497 41.4478122,14.7730766 41.3060333,14.9016515 C41.2687231,14.9394676 41.2351444,14.9697201 41.2052962,14.9924098 C41.175448,15.0150995 41.1456003,15.0415704 41.1157521,15.0718233 C41.100828,15.0869498 41.0821732,15.102076 41.0597871,15.1172025 C41.0374009,15.132329 41.0187461,15.1474552 41.003822,15.1625816 C40.99636,15.1701449 40.9833016,15.1795988 40.9646465,15.1909436 C40.9459914,15.2022885 40.932933,15.2117424 40.9254709,15.2193056 C40.940395,15.2117424 40.9347986,15.2155239 40.9086814,15.2306504 C40.8825643,15.2457768 40.8620439,15.2609031 40.8471198,15.2760295 C40.8321958,15.2835928 40.8172719,15.2949375 40.8023478,15.3100639 C40.7874237,15.3251904 40.7743653,15.3365351 40.7631723,15.3440983 C40.7519792,15.3516615 40.7389208,15.3630062 40.7239967,15.3781327 L40.6792247,15.412167 C40.6643006,15.4197303 40.6587041,15.4235118 40.6624352,15.4235118 C40.6661662,15.4235118 40.6605697,15.4272934 40.6456456,15.4348566 C40.6083354,15.4651095 40.5691603,15.4972528 40.528119,15.5312873 C40.4870778,15.5653219 40.4404407,15.6012467 40.3882064,15.6390628 C40.2911998,15.7146951 40.1774053,15.8035618 40.0468195,15.9056654 C39.9162338,16.007769 39.7763225,16.119325 39.6270816,16.2403367 L39.5263445,16.3084054 C39.5114204,16.3159686 39.502093,16.3235318 39.498362,16.331095 C39.494631,16.3386582 39.4853036,16.3462213 39.4703795,16.3537846 C39.3136765,16.4747963 39.1327247,16.6071508 38.9275184,16.7508522 C38.7223122,16.8945536 38.5040507,17.0495975 38.2727273,17.2159886 C37.9593214,17.4353223 37.6048796,17.6697789 37.2093912,17.9193655 C36.8139028,18.1689522 36.4221514,18.4034088 36.034125,18.6227425 C35.7953396,18.7513174 35.5472303,18.8761089 35.2897898,18.9971206 C35.0323492,19.1181323 34.7469303,19.2353606 34.4335244,19.348809 C34.1201186,19.4546943 33.793659,19.551124 33.454136,19.6381012 C33.1146129,19.7250783 32.7471127,19.7761294 32.3516244,19.7912558 C31.9486739,19.8063823 31.5270747,19.7591128 31.0868141,19.649446 C30.6465534,19.5397791 30.2286852,19.3412473 29.8331968,19.0538445 C29.4600946,18.7664417 29.1355005,18.3996305 28.8594049,17.9533999 C28.5833092,17.5071693 28.378106,17.0344744 28.2437892,16.5353012 C28.1617068,16.2554617 28.1001458,15.969954 28.0591046,15.6787696 C28.0180633,15.3875852 27.9900811,15.1058591 27.975157,14.8335827 C27.9676949,14.7050078 27.9658294,14.5499639 27.9695605,14.3684464 C27.9732915,14.1869288 27.9826189,14.0318849 27.997543,13.90331 C27.997543,13.8730571 28.0050049,13.8276784 28.019929,13.7671725 C27.9378465,13.8428048 27.8538998,13.9165452 27.7680863,13.9883959 C27.6822728,14.0602466 27.598326,14.1377686 27.5162435,14.2209641 C27.1580654,14.5537463 26.7681794,14.9129943 26.3465738,15.2987191 C25.9249683,15.6844439 25.4679249,16.1004154 24.97543,16.546646 L24.9138684,16.6090423 C24.8877513,16.6355136 24.8672309,16.6525307 24.8523069,16.6600939 C24.8448448,16.6676571 24.8373829,16.6733295 24.8299208,16.6771111 C24.8224588,16.6808927 24.8149969,16.686565 24.8075348,16.6941283 C24.7776866,16.7243812 24.7459734,16.7527429 24.7123942,16.7792142 C24.678815,16.8056855 24.6471018,16.8340472 24.6172536,16.8643001 C24.4157784,17.0382544 24.2105753,17.2178785 24.001638,17.4031776 C23.7927007,17.5884768 23.5725737,17.7794455 23.3412503,17.9760895 C23.0651547,18.2181129 22.7554845,18.4809312 22.4122304,18.7645524 C22.0689764,19.0481735 21.7070726,19.3298997 21.3265083,19.6097392 C21.2966601,19.6399921 21.2705434,19.6588999 21.2481572,19.6664632 C21.2332332,19.6815896 21.2164438,19.6948251 21.1977887,19.7061699 C21.1791336,19.7175148 21.1511513,19.7307502 21.1138411,19.7458767 C21.098917,19.7534399 21.0690693,19.7723477 21.024297,19.8026006 L21.001911,19.8139454 C20.9795249,19.8366351 20.9571391,19.8479798 20.9347529,19.8479798 C20.9272909,19.8479798 20.9235599,19.8517613 20.9235599,19.8593246 C20.8638636,19.8971407 20.8004371,19.9273932 20.7332787,19.9500829 C20.6661203,19.9727726 20.591501,19.9878988 20.5094185,19.9954621 C20.4422601,20.0030253 20.3620443,20.0011345 20.2687688,19.9897897 C20.1754932,19.9784448 20.0803536,19.9500831 19.983347,19.9047037 C19.9012645,19.8441979 19.8453,19.7912561 19.8154518,19.7458767 C19.7856036,19.7004973 19.7557559,19.6475555 19.7259077,19.5870496 L19.7259077,19.5983944 L19.6811357,19.5076361 C19.6662116,19.439567 19.6568842,19.388516 19.6531532,19.3544814 C19.6494221,19.3204469 19.6475566,19.2731774 19.6475566,19.2126716 C19.6475566,19.2051083 19.6456912,19.1975452 19.6419601,19.189982 C19.6382291,19.1824188 19.6363636,19.1672925 19.6363636,19.1446028 C19.6363636,19.0538441 19.6382291,18.9782129 19.6419601,18.917707 C19.6456912,18.8572012 19.6512876,18.7966962 19.6587497,18.7361904 C19.6885978,18.5697993 19.7184456,18.4071923 19.7482937,18.2483644 C19.7781419,18.0895366 19.8117206,17.9307111 19.8490308,17.7718833 C19.8564929,17.7567568 19.8620893,17.7321767 19.8658204,17.6981421 C19.8695514,17.6641076 19.8788788,17.6357459 19.8938029,17.6130562 C19.8938029,17.605493 19.8956684,17.5998207 19.8993994,17.596039 C19.9031304,17.5922574 19.9049959,17.5865851 19.9049959,17.5790219 L19.8938029,17.6017114 L19.8938029,17.5563323 C19.8938029,17.5412058 19.9012648,17.5147349 19.9161889,17.4769187 C20.0206575,17.0685043 20.1307211,16.6544236 20.2463827,16.2346643 C20.3620444,15.814905 20.4721079,15.4235136 20.5765766,15.0604785 C20.7929759,14.3268451 21.0037755,13.6329291 21.2089817,12.9787096 C21.4141879,12.3244902 21.6137946,11.7024237 21.8078078,11.1124917 C22.1585239,10.0460762 22.4775215,9.08177869 22.7648103,8.21957037 C23.052099,7.35736204 23.3114012,6.58970562 23.5427245,5.91657806 L23.5427245,5.93926764 C23.5576486,5.86363533 23.5725725,5.80880273 23.5874966,5.77476819 C23.6024207,5.74073365 23.6173445,5.70480884 23.6322686,5.66699269 C23.6471927,5.63673977 23.6565201,5.60837808 23.6602512,5.58190677 C23.6639822,5.55543546 23.6733096,5.52707377 23.6882337,5.49682084 C23.9270191,4.8010036 24.1378187,4.1865003 24.3206388,3.65329252 C24.5034589,3.12008474 24.6545631,2.68331471 24.7739558,2.34296931 L24.7739558,2.3543141 C24.811266,2.23330241 24.8485757,2.12363721 24.8858859,2.0253152 C24.9231961,1.9269932 24.9567748,1.83623579 24.986623,1.75304025 C25.0164712,1.66228148 25.0444534,1.57908719 25.0705706,1.50345488 C25.0966877,1.42782257 25.117208,1.36353607 25.1321321,1.31059345 C25.1470562,1.2727773 25.1582491,1.24252483 25.1657112,1.21983514 C25.1731732,1.19714544 25.1806351,1.17823765 25.1880972,1.16311119 C25.2552556,0.981593646 25.3373369,0.813314282 25.4343434,0.658268048 C25.53135,0.503221814 25.6339516,0.374648816 25.7421512,0.272545199 C25.8503509,0.170441581 25.9604144,0.0948104063 26.0723451,0.0456494052 C26.1842757,-0.00351159583 26.2924738,-0.0129654927 26.3969424,0.0172874311 C26.5237972,0.0702300476 26.6170713,0.162878237 26.6767677,0.295234778 C26.736464,0.427591319 26.7663118,0.588307566 26.7663118,0.777388339 C26.7663118,0.905963265 26.7532534,1.04777172 26.7271362,1.20281795 C26.7010191,1.35786419 26.658113,1.51479887 26.5984166,1.67362672 C26.5834925,1.70387965 26.5685686,1.73791368 26.5536446,1.77572983 L26.5088725,1.88917773 L26.5200655,1.87783294 C26.5051414,1.92321232 26.4846211,1.97237259 26.458504,2.0253152 C26.4323868,2.07825782 26.4081355,2.1349812 26.3857494,2.19548705 C26.3484392,2.29380905 26.3036676,2.40914659 26.2514333,2.54150313 C26.1991989,2.67385968 26.137638,2.83268514 26.0667486,3.0179843 C25.9958591,3.20328346 25.9137779,3.42261387 25.8205023,3.6759821 C25.7272268,3.92935034 25.6171633,4.2262027 25.4903085,4.56654809 C25.4529983,4.65730686 25.4156886,4.75184583 25.3783784,4.85016783 C25.3559922,4.91067368 25.331741,4.9730694 25.3056238,5.03735686 C25.2795066,5.10164433 25.2552554,5.16404005 25.2328692,5.22454589 C25.2179451,5.26236205 25.2030213,5.30395919 25.1880972,5.34933858 C25.1731731,5.39471796 25.1582492,5.43631511 25.1433251,5.47413127 L25.1545182,5.46278648 C24.9381189,6.05271849 24.6881441,6.73528984 24.4045864,7.51052101 C24.1210287,8.28575218 23.7964346,9.19899862 23.4307944,10.2502877 C23.2143951,10.8704727 22.9849407,11.5322454 22.7424242,12.2356259 C22.4999078,12.9390064 22.2443366,13.7028813 21.975703,14.5272734 L21.975703,14.5159286 C21.9607789,14.5537448 21.9477205,14.5934512 21.9365274,14.6350489 C21.9253344,14.6766467 21.912276,14.7163531 21.8973519,14.7541692 L21.8301938,15.0037546 C21.7257252,15.3516632 21.6156617,15.7090205 21.5,16.0758372 C21.3843383,16.4426539 21.2705438,16.818919 21.1586132,17.2046438 L21.1586132,17.2500229 C21.1511511,17.2651494 21.1474201,17.2840572 21.1474201,17.3067469 C21.1399581,17.3369998 21.1343617,17.3559076 21.1306306,17.3634708 C21.1268996,17.3710341 21.1213032,17.3937234 21.1138411,17.4315396 C21.0541448,17.6508733 21.0000457,17.858859 20.9515425,18.055503 C20.9030392,18.252147 20.863864,18.4298803 20.8340158,18.5887081 C21.1847319,18.3391215 21.5335773,18.0687401 21.8805624,17.7775557 C22.2275475,17.4863713 22.5689309,17.197082 22.9047229,16.9096793 C23.1957427,16.6600926 23.4755651,16.4161821 23.7441987,16.1779403 C24.0128324,15.9396986 24.274,15.7071327 24.5277095,15.4802358 C24.5500957,15.4651093 24.5836744,15.4348568 24.6284466,15.3894774 C24.688143,15.3289716 24.7329146,15.2873744 24.7627628,15.2646848 L24.7515698,15.2760295 C25.2589888,14.8222357 25.7365525,14.3854657 26.1842752,13.9657063 C26.6319956,13.545947 27.0461351,13.1545557 27.4266994,12.7915206 L27.4266994,12.8028654 C27.4565476,12.7726125 27.4863953,12.7442508 27.5162435,12.7177795 C27.5460917,12.6913082 27.5759394,12.6629465 27.6057876,12.6326936 C28.4042264,11.8763705 29.1019171,11.2127069 29.6988807,10.641683 C30.2958443,10.070659 30.8368344,9.54691314 31.3218673,9.07042959 C31.3890257,9.00992375 31.4561831,8.94752803 31.5233415,8.88324056 C31.5904999,8.8189531 31.6539264,8.75655738 31.7136227,8.69605153 C31.7957052,8.62041922 31.87219,8.54478805 31.9430794,8.46915574 C32.0139689,8.39352343 32.0904537,8.31789226 32.1725362,8.24225995 L32.1725362,8.25360474 C32.5083282,7.92838581 32.8422497,7.60128097 33.1743107,7.27228043 C33.5063717,6.94327988 33.8664099,6.59726726 34.2544363,6.23423217 C34.3066706,6.19641602 34.3365183,6.17561745 34.3439803,6.17183583 C34.3514424,6.16805422 34.3589043,6.16238188 34.3663664,6.15481865 C34.4111386,6.10943926 34.4484483,6.07540523 34.4782965,6.05271554 L34.4671035,6.05271554 C34.7133509,5.81825538 34.9726531,5.58001718 35.2450177,5.33799379 C35.5173824,5.0959704 35.8177252,4.8388244 36.1460551,4.56654809 L36.5378105,4.26023877 L36.5266175,4.26023877 C36.5713898,4.22242262 36.6217578,4.18460703 36.6777232,4.14679087 C36.7336885,4.10897472 36.8027114,4.06359601 36.8847939,4.0106534 L36.8736009,4.0106534 C36.9034491,3.99552694 36.9388932,3.97850992 36.9799345,3.95960184 C37.0209757,3.94069377 37.0788057,3.93123987 37.1534262,3.93123987 L37.1758122,3.91989508 C37.2355085,3.91233185 37.3008004,3.91422263 37.3716899,3.92556747 C37.4425793,3.93691232 37.530257,3.97283713 37.6347256,4.03334298 C37.7093461,4.10897529 37.770907,4.19216958 37.8194103,4.28292835 C37.8679136,4.37368712 37.8958959,4.44553674 37.9033579,4.49847935 L37.9033579,4.61192725 C37.9033579,4.6724331 37.8940305,4.73104726 37.8753754,4.78777149 C37.8567203,4.84449572 37.8399309,4.89176521 37.8250068,4.92958136 L37.7914278,4.98630531 L37.7130767,5.14513236 C37.6981526,5.16782206 37.6664394,5.2094192 37.6179361,5.26992505 C37.5694328,5.3304309 37.5153338,5.39849896 37.4556375,5.47413127 L37.4444444,5.49682084 C37.2653554,5.72371777 37.0638832,5.96384675 36.8400218,6.21721499 C36.6161605,6.47058323 36.3960335,6.71827532 36.1796342,6.96029871 C35.642367,7.54266749 35.140552,8.07019494 34.6741742,8.54289687 L33.0791701,10.1595294 C32.9970876,10.2427249 32.9187373,10.3240285 32.8441168,10.4034424 C32.7694964,10.4828563 32.6911461,10.5603783 32.6090636,10.6360106 L32.6090636,10.6246658 C32.2658095,10.9650112 31.9449464,11.2845529 31.6464646,11.5833005 C31.3479829,11.8820481 31.0569675,12.1637743 30.7734098,12.4284873 C30.6017827,12.5948784 30.4301583,12.7537039 30.2585313,12.9049685 C30.0869042,13.0562331 29.9152798,13.2037139 29.7436527,13.3474153 C29.6541082,13.4306108 29.5571031,13.5119144 29.4526345,13.5913283 C29.3481658,13.6707422 29.2436988,13.7444826 29.1392301,13.8125517 C29.1317681,13.8276781 29.1280371,13.8446952 29.1280371,13.8636032 C29.1280371,13.8825113 29.1243062,13.910873 29.1168441,13.9486892 C29.10192,14.0621376 29.0888616,14.1736936 29.0776686,14.2833604 C29.0664755,14.3930273 29.0608791,14.4970202 29.0608791,14.5953422 C29.0608791,14.75417 29.072072,14.9356848 29.0944581,15.1398921 C29.1168442,15.3516625 29.1485574,15.5653206 29.1895987,15.7808727 C29.2306399,15.9964248 29.2884699,16.2100828 29.3630904,16.4218533 C29.4824831,16.7621987 29.6279908,17.0760681 29.7996178,17.3634708 C29.9712448,17.6508736 30.172717,17.8853303 30.4040404,18.0668478 C30.6279017,18.2483653 30.87228,18.3807199 31.1371826,18.4639154 C31.4020852,18.547111 31.6651184,18.5962712 31.9262899,18.6113977 C32.1949235,18.6265242 32.4579567,18.6132887 32.7153972,18.5716909 C32.9728378,18.5300932 33.2134851,18.4790421 33.4373464,18.4185363 C33.6462837,18.3580304 33.8664107,18.2805085 34.0977341,18.1859681 C34.3290575,18.0914277 34.5342606,17.9987795 34.7133497,17.9080208 C35.086452,17.7340664 35.4408938,17.5430977 35.7766858,17.3351089 C36.1124778,17.12712 36.4109551,16.9361513 36.6721267,16.762197 C36.9109121,16.5958059 37.1403665,16.4313081 37.3604969,16.2686986 C37.5806272,16.1060892 37.7802339,15.952936 37.959323,15.8092347 C38.2727288,15.5672113 38.535762,15.3573348 38.7484302,15.1795988 C38.9610985,15.0018629 39.1457814,14.8449282 39.3024843,14.7087901 L39.4032214,14.606687 C39.4256075,14.5839973 39.4517243,14.5613079 39.4815725,14.5386182 C39.5114207,14.5159285 39.5338065,14.4970207 39.5487305,14.4818943 C39.5785787,14.4592046 39.60283,14.438406 39.6214851,14.4194979 L39.7278187,14.3117224 C39.8173633,14.2285269 39.9106374,14.1453326 40.007644,14.0621371 C40.1046506,13.9789415 40.2053867,13.8844025 40.3098553,13.7785173 C40.4590962,13.6499424 40.6139313,13.542168 40.7743653,13.4551908 C40.9347992,13.3682136 41.0877689,13.3039271 41.2332787,13.2623294 C41.3787886,13.2207316 41.5093724,13.2074962 41.6250341,13.2226226 C41.7406958,13.2377491 41.8321045,13.2831278 41.8992629,13.3587601 Z" id="K"></path>
                    </g>
                </g>
                <text id="Krystal-Klumpp" font-family="FiraSans-Medium, Fira Sans" font-size="24" font-weight="400" letter-spacing="0.6" fill="#000000">
                    <tspan x="63" y="26">KRYSTAL KLUMPP</tspan>
                </text>
                <path d="M53.5,8.5 L53.5,26.5" id="Line-2" stroke="#0F6161" stroke-linecap="square"></path>
            </g>
        </g>
    </g>
</svg>